<?xml version="1.0" encoding="utf-8"?>
<!-- Copy icon by Arthur Shlain from Usefulicons.com -->
<svg xmlns="http://www.w3.org/2000/svg" xmlns:xlink="http://www.w3.org/1999/xlink" xml:space="preserve" version="1.1" x="0px" y="0px" viewBox="0 0 100 100" width="400px" height="400px"><g style="fill: #ffffff"><path d="M15,70L15,15L55,15L55,20L60,20L60,10L10,10L10,75L35,75L35,70Z" stroke="none"></path><path d="M20,25L35,25L35,30L20,30L20,25Z" stroke="none"></path><path d="M20,35L35,35L35,40L20,40L20,35Z" stroke="none"></path><path d="M20,45L35,45L35,50L20,50L20,45Z" stroke="none"></path><path d="M50,40L80,40L80,45L50,45L50,40Z" stroke="none"></path><path d="M50,50L50,55L55,55L80,55L80,50Z" stroke="none"></path><path d="M50,60L80,60L80,65L50,65L50,60Z" stroke="none"></path><path d="M85,25L50,25L45,25L40,25L40,30L40,85L40,90L45,90L70.858,90C73.51,90,76.054,88.946,77.929,87.071L87.071,77.929C88.946,76.054,90,73.51,90,70.858L90,30L90,25L85,25ZM80,75L75,75L75,80C75,82.761,72.761,85,70,85L45,85L45,30L50,30L85,30L85,70C85,72.761,82.761,75,80,75Z" stroke="none"></path></g></svg>